<svg xmlns="http://www.w3.org/2000/svg" version="1" width="900" height="600"><path d="M 0,300 V 0 H 900 V 600 H 0 Z" fill="#fff"/><path d="m 136.68115,466.17563 c -30.7323,-8.26467 -47.5662,-33.04661 -47.548754,-69.9975 0.0109,-23.51272 11.828134,-68.7068 17.964924,-68.7068 1.85151,0 0.7728,5.00038 -2.39755,11.109 -3.17171,6.10995 -6.419879,21.8759 -7.218189,35.03497 -1.95347,32.16113 7.304049,50.5071 31.805589,63.02887 14.47662,7.39798 21.29093,8.60816 47.65606,8.46058 19.00869,-0.1074 38.59571,-2.49015 51.26908,-6.24146 25.95592,-7.68104 70.07138,-27.89728 70.07138,-32.10878 0,-1.75759 -7.017,-3.98744 -15.59429,-4.95344 -35.09931,-3.95658 -51.74807,-42.59125 -37.00185,-85.86809 7.17794,-21.06956 9.66807,-18.48416 3.12885,3.24818 -8.67662,28.82976 4.18331,55.80265 28.9693,60.76011 15.04814,3.00936 20.51141,-0.38505 20.39736,-12.67205 -0.12081,-13.00479 -9.82104,-150.44794 -12.40504,-175.79205 -1.9696,-19.3066 0.96593,-37.88467 5.18817,-32.83866 5.31302,6.35011 11.1023,36.60741 7.4369,38.87349 -4.2169,2.60553 6.11802,167.22012 10.83658,172.62303 4.66906,5.34251 32.34096,-11.26869 47.54208,-28.53729 17.23373,-19.58029 16.51585,-27.33514 -3.0631,-33.09224 -8.05,-2.3667 -16.8942,-6.17703 -19.65538,-8.46726 -7.35643,-6.10728 -6.45886,-31.55468 1.46106,-41.3341 5.5143,-6.80897 7.8823,-7.50261 15.91223,-4.65157 5.55715,1.97225 12.16484,8.61887 16.07448,16.16709 7.80849,15.07499 14.0459,15.96585 29.89642,4.27322 14.92068,-11.00973 16.44072,-10.78969 17.72744,2.56259 1.41144,14.63357 12.7619,16.87952 22.53191,4.45836 7.75081,-9.8532 11.01115,-10.99229 11.01115,-3.8479 0,6.40645 9.37018,15.62506 15.88258,15.62506 3.47895,0 4.94012,-3.03619 4.52143,-9.39972 -1.83941,-27.88658 4.75487,-27.23586 10.07323,0.99551 2.83228,15.03741 2.38284,17.81735 -3.98465,24.64108 -8.94495,9.58621 -15.35682,9.70964 -25.1724,0.48837 -7.17129,-6.73518 -8.17342,-6.84654 -15.50837,-1.70929 -11.73154,8.21771 -16.09193,6.79823 -22.51044,-7.32551 -3.20397,-7.04912 -6.21201,-13.41668 -6.68696,-14.1479 -1.36577,-2.10642 -25.32527,17.00432 -26.76223,21.34595 -0.71112,2.15204 -3.00531,10.58844 -5.09561,18.74846 -4.32026,16.86074 -23.17871,39.12304 -49.89394,58.90191 -11.65107,8.62693 -18.11255,16.14564 -19.39784,22.57893 -2.11985,10.60186 -33.61558,35.20537 -56.44669,44.0966 l -12.64655,4.92393 13.33619,-1.9964 c 7.33354,-1.09749 25.98275,-6.57419 41.44271,-12.16759 27.49483,-9.94848 28.14554,-10.44623 29.84277,-22.81909 0.95394,-6.95789 4.08399,-18.03202 6.95649,-24.61291 5.20846,-11.92741 5.21783,-11.89523 3.3274,11.10902 -1.3578,16.49849 -0.75136,23.07132 2.12791,23.07132 7.18732,0 37.41237,-16.80171 49.8161,-27.69203 13.88627,-12.19307 14.72888,-17.49937 5.24051,-33.06137 -6.58621,-10.80178 -9.32461,-28.116 -4.4462,-28.116 1.30678,0 6.68947,4.13234 11.96225,9.18505 7.25579,6.94984 9.5876,12.38629 9.5876,22.35219 0,22.3522 -10.15643,36.74561 -39.05191,55.3465 -16.60984,10.69174 -24.92021,17.99578 -22.84191,20.07537 10.14564,10.14569 92.65553,-46.20436 92.65553,-63.27976 0,-8.93955 -15.49092,-39.69862 -25.43931,-50.51515 -4.32288,-4.69986 -8.90875,-12.97929 -10.18871,-18.39963 l -2.32908,-9.85456 11.28875,9.46146 c 14.0339,11.76105 25.30521,30.76712 44.23485,74.58063 11.18408,25.88882 17.23373,35.64141 25.07711,40.42445 13.93457,8.49813 14.5625,8.24187 15.97253,-6.4883 1.20483,-12.59156 1.01696,-12.81831 -10.67031,-12.81831 -9.31653,0 -12.09374,-1.48253 -12.80214,-6.83579 -0.90433,-6.8358 -0.90433,-6.8358 2.12519,0 2.89933,6.54064 3.1838,6.46684 6.59024,-1.70928 2.52502,-6.05897 3.62386,-6.80495 3.77815,-2.56259 0.11808,3.28977 1.75359,5.98116 3.63454,5.98116 1.87834,0 3.59573,-2.69139 3.81446,-5.98116 0.36352,-5.49681 0.52587,-5.48206 1.9963,0.18783 1.9696,7.60056 7.3765,6.13143 13.96685,-3.79424 l 4.98156,-7.5026 h -52.95825 l 2.17207,-10.85946 c 1.19415,-5.97311 2.79608,-11.48468 3.55953,-12.24809 0.76335,-0.76341 16.51323,-9.33533 34.99868,-19.04766 l 33.61154,-17.66171 1.79775,-15.38089 c 0.98883,-8.45921 3.0027,-17.30349 4.47455,-19.65409 6.03079,-9.62647 50.12597,-0.41323 50.12597,10.4744 0,7.25709 -12.96177,22.30925 -24.22784,28.13478 -5.47395,2.83092 -9.95242,7.46907 -9.95242,10.3067 0,4.09477 -1.40611,4.40738 -6.81431,1.51339 -5.41639,-2.89934 -12.24945,-1.34704 -33.32577,7.56969 l -26.51134,11.21635 53.37694,1.70929 53.37824,1.70927 -2.85102,7.69045 c -1.56977,4.23027 -3.7607,7.69178 -4.87024,7.69178 -11.35994,0 -53.4454,8.72756 -61.435,12.73914 -15.79676,7.93329 -25.63656,18.39963 -25.63656,27.27074 0,8.18552 1.2853,9.0992 17.94475,12.74853 7.13094,1.56303 9.39973,4.07867 9.39973,10.41939 0,11.11975 -11.09554,16.67292 -28.69159,14.36122 -11.14384,-1.46376 -16.96932,-5.06882 -28.29035,-17.50608 -7.84076,-8.61352 -16.8943,-22.56955 -20.11833,-31.01132 -3.22404,-8.44311 -6.86,-15.35003 -8.07813,-15.35003 -1.21966,0 -4.91864,4.57242 -8.21911,10.16047 -3.30046,5.58804 -14.85362,16.9721 -25.67287,25.29714 -10.81914,8.32504 -21.80608,17.70866 -24.41428,20.85221 -6.48558,7.81387 -28.88338,18.88799 -38.20396,18.88799 -4.20217,0 -11.56929,-3.73118 -16.37105,-8.29151 l -8.73298,-8.2915 -17.4349,7.43685 c -14.2378,6.0724 -22.59374,7.2316 -45.55231,6.3139 -22.59909,-0.90294 -27.75106,-2.0769 -26.2525,-5.9825 1.02645,-2.67126 1.52419,-4.85684 1.10692,-4.85684 -0.41728,0 -11.51554,3.0751 -24.66256,6.83446 -27.16206,7.76825 -47.40916,8.33309 -71.02379,1.98164 z M 564.89186,317.16597 c 4.55763,-2.99192 4.55763,-3.74056 0,-6.73115 -2.82017,-1.8515 -7.63011,-3.39039 -10.69037,-3.41857 -6.44403,-0.0604 -14.24314,8.05538 -10.92795,11.37063 3.33274,3.33271 15.75119,2.62968 21.61832,-1.22091 z m -211.92053,-33.4451 c 0,-4.86623 -8.03659,-10.93728 -14.47658,-10.93728 -5.21238,0 -5.65375,1.15384 -2.61355,6.83581 3.49912,6.5366 17.09013,9.79953 17.09013,4.10147 z m 41.01758,177.99373 c 0,-5.43778 1.9226,-12.5124 4.27185,-15.72436 3.6654,-5.00576 4.26106,-3.79692 4.19269,8.48874 -0.0469,8.211 -1.87026,14.92337 -4.27327,15.72434 -2.66588,0.88819 -4.19127,-2.20033 -4.19127,-8.48872 z m 161.13294,1.28665 c -4.56439,-4.85952 -9.07372,-16.25699 -11.41763,-28.86196 l -3.87475,-20.83342 -11.812,4.93734 c -14.7664,6.16899 -16.25569,6.1663 -11.12247,-0.0174 2.25941,-2.7236 9.36887,-6.68823 15.79818,-8.81074 7.06389,-2.33048 11.71137,-6.1207 11.74222,-9.57415 0.0425,-4.68242 0.60384,-4.84342 3.10868,-0.88953 2.56666,4.05587 5.85099,3.62385 20.55709,-2.70212 9.62641,-4.14173 18.78867,-6.73516 20.36247,-5.76245 1.57238,0.97136 5.60948,-1.27325 8.97308,-4.98833 8.61348,-9.51779 10.80038,-8.53301 13.48905,6.06166 4.20218,22.82847 14.38271,41.6172 24.70421,45.58719 16.94523,6.5205 39.87163,4.18601 63.05841,-6.41854 30.06139,-13.74941 32.83053,-17.78112 36.9602,-53.83308 5.17346,-45.16189 4.60593,-71.64776 -1.6462,-76.83732 -2.86443,-2.37745 -6.28037,-3.25087 -7.59118,-1.9414 -1.30939,1.31081 -3.25216,18.83299 -4.31612,38.94057 -3.00672,56.83305 -8.73691,56.90014 -7.32819,0.0885 1.36849,-55.08889 -0.67753,-60.79097 -16.40059,-45.72673 l -10.1295,9.70428 8.82414,15.05754 c 12.84107,21.90944 9.96856,39.37259 -9.3112,56.58083 -26.77967,23.90315 -49.66584,13.00076 -45.24505,-21.55256 2.16269,-16.90232 8.07006,-30.50952 16.15767,-37.22189 2.94491,-2.44318 5.35325,-5.78259 5.35325,-7.42077 0,-4.1055 -27.60746,-23.77033 -30.69335,-21.86248 -1.37252,0.84794 -3.53663,16.65547 -4.80851,35.12621 -3.88282,56.37421 -8.97843,59.97525 -6.66003,4.70791 1.65296,-39.39136 1.14039,-49.6444 -2.59207,-51.95206 -2.88058,-1.78039 -6.79828,-0.9338 -10.28792,2.22448 -3.0993,2.80543 -11.24459,6.01068 -18.09914,7.12427 -14.02987,2.27545 -22.91168,-3.5514 -31.89545,-20.92466 l -5.21238,-10.07995 -6.07375,11.77984 c -8.7235,16.91844 -21.64384,27.93889 -31.17364,26.59052 -11.08224,-1.56975 -26.29808,-32.88563 -31.12273,-64.05392 -2.06347,-13.33349 -4.83,-24.24393 -6.14484,-24.24393 -5.82679,0 -10.73333,11.43101 -14.19484,33.06139 -2.05268,12.83572 -5.2271,25.25957 -7.05582,27.61018 -10.61655,13.64475 -30.12844,-7.3443 -29.39192,-31.61775 l 0.41597,-13.6716 2.38142,14.65102 c 1.31081,8.05805 4.88636,17.15456 7.94674,20.21491 8.34111,8.34249 15.02938,0.78488 19.74129,-22.31194 5.05538,-24.77256 16.53875,-51.86217 21.98457,-51.86217 2.71016,0 4.99769,8.24454 6.40511,23.07266 2.96235,31.20317 7.65823,46.53306 18.02662,58.85494 25.59906,30.42367 54.84203,-13.45424 37.16421,-55.76507 -2.82017,-6.7486 -5.01918,-17.31827 -4.88637,-23.48859 l 0.24151,-11.21903 6.82914,15.38223 c 3.75666,8.45921 9.1327,25.28372 11.94622,37.38691 6.78073,29.17189 9.25614,33.11908 23.7555,37.90481 18.85714,6.224 22.22074,-0.46557 6.96729,-13.85675 -7.76149,-6.81568 -12.38356,-13.9292 -12.38356,-19.06376 0,-4.50533 1.27058,-8.19088 2.8229,-8.19088 4.1216,0 17.68578,15.15145 17.68578,19.75338 0,2.16276 3.07651,5.57864 6.83721,7.59115 10.32543,5.52634 8.96501,-4.91587 -5.3586,-41.13822 -14.9355,-37.76795 -14.51147,-44.36628 1.94005,-30.20094 7.52674,6.48159 10.40328,10.94263 7.75484,12.02938 -3.25892,1.339 -3.08589,4.41409 0.76335,13.62733 2.73436,6.54466 5.98249,19.88486 7.21817,29.6455 4.08671,32.27113 7.12691,27.54041 9.04286,-14.0741 2.29834,-49.8631 6.81028,-62.15277 11.69261,-31.84181 2.33726,14.51282 2.24066,21.13396 -0.31663,21.98726 -2.08626,0.69498 -4.17252,13.66757 -4.84875,30.15801 l -1.18869,28.93977 13.14025,8.98247 c 7.22625,4.94137 18.95244,11.70874 26.05526,15.0401 l 12.91488,6.05629 9.29233,-9.29106 9.29102,-9.29239 -22.68358,-21.29494 c -29.70048,-27.88389 -36.96293,-47.60775 -12.6519,-34.36013 6.92171,3.7701 11.43104,8.85502 11.43104,12.8894 0,6.28841 25.69424,29.22825 32.73665,29.22825 4.17798,0 4.0841,-23.03107 -0.0992,-24.49617 -1.78969,-0.62657 -4.21821,-11.90596 -5.39883,-25.06639 -1.55493,-17.34642 -1.14442,-22.51587 1.49192,-18.79811 1.99914,2.81884 3.86809,9.74051 4.15246,15.38088 0.28316,5.63903 1.66767,-0.66412 3.07509,-14.00836 3.19993,-30.34048 6.5595,-42.00358 10.15381,-35.25634 4.80852,9.02539 7.34422,30.46525 3.60369,30.46525 -3.94453,0 -5.15198,58.8053 -1.28671,62.67199 1.25858,1.25714 5.10378,-0.26297 8.54642,-3.37831 5.25273,-4.75488 6.25759,-11.03254 6.25759,-39.09218 0,-33.09493 3.99141,-53.12603 9.86127,-49.49816 5.07412,3.13547 8.18018,26.59588 3.87333,29.25776 -2.36124,1.45972 -3.44941,10.19936 -2.8121,22.57356 l 1.04117,20.19211 7.6904,-7.6918 c 6.12205,-6.12203 7.69051,-11.54773 7.69051,-26.5999 0,-10.39927 2.52763,-24.62766 5.61755,-31.61641 l 5.61755,-12.70828 2.89802,15.38088 c 1.8381,9.75125 1.6583,15.79815 -0.48978,16.5213 -1.86492,0.62657 -3.389,5.12518 -3.389,9.99543 v 8.85501 l 9.10719,-8.28614 c 8.89534,-8.09428 8.84562,-7.82193 -2.17076,11.73557 l -11.27676,20.02037 2.45393,48.33091 c 1.34973,26.58246 3.62517,49.87381 5.05809,51.75885 1.43151,1.88505 4.67168,11.05535 7.19801,20.37995 4.58052,16.90501 4.602,16.92514 7.63948,6.83579 1.67705,-5.5639 3.50174,-51.05851 4.05989,-101.0987 0.61855,-55.60677 2.4163,-93.4834 4.62338,-97.41448 4.0492,-7.21416 5.62431,-4.64218 8.62427,14.07543 0.90423,5.64037 2.57332,14.09958 3.70968,18.79945 1.13646,4.69987 1.15249,6.62248 0.0349,4.27187 -5.69933,-11.98511 -7.38445,3.06169 -9.40911,84.02733 -1.6462,65.84906 -3.53663,92.06525 -7.43286,103.10852 -6.00397,17.01503 -28.52651,45.66232 -50.01999,63.61921 -17.62146,14.72212 -22.81247,16.88891 -47.39576,19.77752 l -18.79946,2.20973 18.79946,-9.99006 c 35.64274,-18.94032 76.18253,-52.01512 85.45077,-69.7144 5.84031,-11.15464 7.35239,-17.10493 4.77766,-18.79945 -2.07143,-1.36448 -6.64389,-8.6001 -10.16046,-16.07989 l -6.39301,-13.60049 -4.5308,17.01771 c -2.49143,9.36082 -5.88992,20.09416 -7.55357,23.85486 -2.78124,6.29107 -3.03889,6.15422 -3.23341,-1.70928 -0.11535,-4.69987 1.28661,-17.68856 3.11533,-28.86331 2.81079,-17.15993 2.45927,-21.27751 -2.25799,-26.48989 -3.07247,-3.39442 -6.66548,-6.17167 -7.98567,-6.17167 -1.31887,0 -3.45747,15.36746 -4.75083,34.14947 -4.02369,58.40951 -13.59112,78.18972 -47.74194,98.69041 -14.62411,8.77853 -24.29359,11.91132 -40.88467,13.24226 -20.56767,1.65026 -22.21801,1.21958 -30.86638,-8.08087 -8.08358,-8.69267 -22.69155,-40.40433 -22.69155,-49.26068 0,-5.9342 -6.57553,-3.44539 -11.74637,4.4463 -2.788,4.25307 -6.82107,16.17379 -8.9637,26.48989 -4.34163,20.9005 -11.35046,34.13605 -18.08027,34.13605 -2.44858,0 -7.84741,-3.61445 -11.99583,-8.02988 z m 24.21704,-39.61945 c 5.12526,-15.86656 8.97046,-29.13835 8.54381,-29.49255 -0.42534,-0.3542 -9.61845,3.20926 -20.4269,7.92121 l -19.65549,8.56387 v 15.17158 c 0,19.56553 5.08492,29.12492 14.75843,27.74704 6.08041,-0.86539 9.18363,-6.39573 16.77884,-29.91115 z m -21.28282,8.62021 c 0,-6.6171 3.66409,-15.65994 6.34612,-15.65994 1.20875,0 2.199,4.61399 2.199,10.25436 0,5.92346 -1.80463,10.25303 -4.27327,10.25303 -2.34925,0 -4.27185,-2.18021 -4.27185,-4.84745 z m 134.15874,-76.29528 c 8.36936,-7.51067 7.44759,-18.8169 -2.40158,-29.44425 -10.91716,-11.77984 -19.76278,-11.43369 -30.38479,1.1914 -13.3388,15.85315 -14.75025,24.11246 -5.41224,31.6741 9.14078,7.40197 28.02201,5.71148 38.19731,-3.42125 z m 74.34182,-85.22812 v -39.90389 l -8.54512,8.02855 c -7.53884,7.08132 -8.54501,10.84871 -8.54501,31.99206 0,19.90097 1.26109,25.30655 7.43275,31.87535 4.08682,4.35103 7.93202,7.91182 8.54512,7.91182 0.61179,0 1.11357,-17.95688 1.11357,-39.90389 z M 737.8127,259.98945 c -3.18107,-3.17975 -12.27223,6.48026 -12.27223,13.04236 0,3.43601 2.6914,7.76691 5.98118,9.62378 5.14532,2.90337 6.13274,1.68379 7.06389,-8.71816 0.59434,-6.652 0.24685,-12.92831 -0.77284,-13.94798 z M 195.96403,421.57189 c 5.93015,-5.82955 54.4664,-19.67959 54.4664,-15.54188 0,2.85103 -18.72433,9.71769 -45.92128,16.84061 -11.58936,3.0362 -12.76998,2.85641 -8.54512,-1.29873 z m 449.25213,-0.84927 c 1.87964,-1.90384 14.18546,-7.36308 27.34317,-12.13271 37.79485,-13.69843 46.14535,-16.02489 46.14535,-12.86123 0,1.62745 -14.99712,7.92657 -33.32707,13.99762 -18.32844,6.06971 -35.63195,11.80668 -38.45212,12.74719 -3.44003,1.14713 -4.00221,0.57155 -1.70933,-1.75087 z M 132.51388,405.48395 c -7.60324,-11.4887 -8.84562,-15.98464 -6.36487,-23.03778 3.90157,-11.0956 14.90321,-14.01507 14.90321,-3.9539 0,3.89754 -2.21645,7.08669 -4.92519,7.08669 -9.11801,0 -9.29512,6.90692 -0.44682,17.42291 7.78842,9.25482 11.16271,16.75742 7.53481,16.75742 -0.68964,0 -5.50492,-6.4239 -10.70114,-14.27534 z m 37.94508,-48.55228 c -2.33453,-58.24449 -2.81079,-61.32764 -10.80583,-69.95055 -9.99539,-10.77761 -14.18143,-22.58832 -19.7051,-55.5759 -2.27947,-13.60989 -5.91002,-25.33338 -8.06876,-26.05252 -2.38817,-0.79694 -5.46595,6.45343 -7.86486,18.5338 -8.12379,40.91418 -10.143,45.98568 -17.85492,44.83586 -12.681438,-1.89175 -20.510072,-17.08882 -22.397803,-43.47943 -0.971364,-13.56694 -0.363586,-24.23858 1.377898,-24.23858 1.711968,0 2.581363,5.76784 1.931999,12.81697 -2.908728,31.55872 18.154106,56.60899 26.029706,30.95764 1.90919,-6.21729 4.51337,-18.97387 5.78795,-28.34944 2.46733,-18.15278 10.01824,-35.93389 15.26013,-35.93389 1.74684,0 4.01824,5.76916 5.04872,12.81829 6.77277,46.34255 12.91085,65.59012 21.84773,68.50556 3.77269,1.23165 4.11888,-4.01695 1.90516,-28.80024 -3.29785,-36.92538 -3.06975,-45.37521 1.3457,-49.79063 3.99817,-3.99818 15.9215,32.98221 12.448,38.60246 -1.19011,1.92664 -1.10288,14.0741 0.19451,26.9957 1.99108,19.82986 3.24148,23.18536 8.01642,21.52036 20.25921,-7.06524 22.90907,-34.13471 6.5125,-66.57089 -7.34563,-14.53429 -10.7427,-25.70098 -10.03027,-32.97282 l 1.07736,-10.99498 7.76553,14.61614 c 4.27054,8.03927 11.30358,25.38435 15.62907,38.54209 11.474,34.91155 19.4408,49.14262 28.83246,51.49992 14.68048,3.68423 23.88711,0.36494 27.48676,-9.90822 2.93422,-8.38005 1.22359,-13.92784 -12.74991,-41.32605 -20.58522,-40.36408 -21.8691,-58.51819 -2.69674,-38.10873 4.28929,4.56569 7.08002,10.33352 6.20121,12.81829 -0.8774,2.48477 1.99903,11.70337 6.393,20.48727 11.13861,22.26364 15.00932,41.74332 11.10503,55.88316 -3.45344,12.51104 -14.13716,22.14289 -24.55658,22.14289 -11.26465,0 -25.89148,-13.36436 -30.13782,-27.53775 -3.44003,-11.48601 -7.69585,-15.21182 -8.23786,-7.2128 -1.13505,16.79231 -6.74726,29.03906 -17.08479,37.28897 l -11.81342,9.42522 -0.24151,52.97979 c -0.33942,75.13475 -5.03128,78.39901 -7.95067,5.53304 z m 226.9485,52.1238 c 0,-1.11493 4.57769,-7.78972 10.17518,-14.83215 7.82462,-9.84649 9.41848,-14.22034 6.89881,-18.92824 -2.44847,-4.57375 -1.87964,-6.6587 2.246,-8.24187 9.73512,-3.73655 2.94894,21.75916 -8.9624,33.67184 -5.69671,5.69673 -10.35759,9.44535 -10.35759,8.33042 z m -48.8434,-9.80089 c -0.98218,-3.75668 -0.35425,-7.71727 1.39531,-8.79866 1.75087,-1.08138 2.75976,-0.69767 2.24327,0.85062 -0.51661,1.54963 0.5286,3.58628 2.32374,4.52678 1.79513,0.93917 4.33356,-2.13592 5.64175,-6.83579 1.49857,-5.39082 2.50223,-6.33669 2.71681,-2.56258 0.49109,8.61082 6.43465,7.36977 8.18421,-1.71063 1.06123,-5.51694 1.61131,-4.5268 1.94539,3.50175 0.37835,9.08443 -1.18738,11.82278 -8.30219,14.52758 -12.26689,4.66497 -14.1184,4.26383 -16.14829,-3.49907 z m 400.93057,4.26919 c 0.0174,-1.40876 7.79507,-6.67345 17.28737,-11.69666 20.0539,-10.61259 21.13661,-4.83001 1.21824,6.51379 -14.24848,8.11442 -18.55119,9.31923 -18.5043,5.18287 z m -530.99596,-6.58088 c -3.73922,-3.73923 -2.52098,-27.88255 1.53488,-30.38877 2.62969,-1.62612 3.06844,0.91635 1.43696,8.34382 -1.85424,8.44446 -1.21562,10.68102 3.0523,10.68102 2.96911,0 5.39883,1.34973 5.39883,2.99997 0,4.48117 -8.83493,10.95204 -11.42297,8.36396 z M 335.8812,383.85492 c 0,-2.62967 27.89869,-15.95243 29.67769,-14.17205 0.91905,0.91904 -1.43423,3.33137 -5.22851,5.36266 -10.19797,5.4579 -24.44918,10.59246 -24.44918,8.80939 z m 111.08743,-42.58856 c 8.07148,-9.10591 53.53656,-32.79977 51.0411,-26.59857 -1.50675,3.74324 -43.40968,29.353 -53.92701,32.95807 -2.17349,0.74462 -0.87348,-2.11716 2.88591,-6.3595 z m 50.74594,-15.12865 c 7.23159,-6.55808 12.24672,-13.38046 11.14657,-15.16085 -1.10016,-1.78174 0.28839,-5.13859 3.0885,-7.46237 4.32146,-3.58761 5.08896,-2.61625 5.08896,6.4494 0,6.78617 -1.71468,10.67163 -4.7093,10.67163 -2.58934,0 -6.69219,2.39219 -9.11799,5.31301 -2.42568,2.92483 -7.61255,6.84385 -11.52622,8.71279 -3.91498,1.86894 -1.20079,-1.96688 6.02948,-8.52361 z m -370.21183,-3.64532 c -3.36221,-4.05183 -3.52723,-8.60411 -0.71376,-19.68897 2.0125,-7.92926 2.97314,-15.10584 2.13325,-15.94572 -0.83988,-0.83989 -10.95471,1.09345 -22.4783,4.29735 -29.161154,8.1077 -29.497917,4.21284 -0.38505,-4.45701 29.28191,-8.72084 33.01044,-8.85769 29.94069,-1.09749 -5.47405,13.84064 -6.165,28.91026 -1.45975,31.81765 3.40918,2.10642 3.70302,3.9767 1.04106,6.63857 -2.66182,2.66188 -4.93729,2.22047 -8.07814,-1.56438 z m 471.97324,-7.55359 c 0.22276,-3.4454 1.57915,-10.88092 3.0148,-16.51996 2.5961,-10.20607 2.61082,-10.194 3.01338,2.56259 0.22275,7.05046 0.40386,13.97213 0.40386,15.38222 0,1.40876 -1.5376,3.07645 -3.41724,3.70301 -1.88106,0.62655 -3.23614,-1.68111 -3.0148,-5.12786 z m 33.77651,-5.86308 c 0,-4.69987 1.3457,-9.37692 2.9919,-10.39257 1.64358,-1.01698 2.99059,1.9964 2.99059,6.69628 0,4.69985 -1.34701,9.37825 -2.9919,10.39389 -1.64489,1.01698 -2.99059,-1.99775 -2.99059,-6.6976 z M 485.71732,279.90785 c -0.70164,-7.36307 -0.2643,-12.75926 0.97269,-11.99585 3.1234,1.93066 5.59749,25.37899 2.67668,25.37899 -1.30415,0 -2.94632,-6.02275 -3.64937,-13.38448 z M 647.756,253.77888 c -3.05906,-9.96458 -2.9208,-11.49273 0.7567,-8.44045 4.89433,4.06124 9.18766,20.60803 5.3478,20.60803 -1.30405,0 -4.05182,-5.47401 -6.1045,-12.16894 z m 138.06163,-12.33262 c -3.52322,-10.90508 -4.50802,-18.96314 -2.5599,-20.91124 1.94942,-1.94944 4.72532,4.31749 7.20607,16.2637 5.18686,24.98185 2.71822,27.45053 -4.64617,4.64754 z m -477.24874,2.32108 c -2.66589,-3.21195 -3.40252,-9.47486 -1.99511,-16.97076 3.14891,-16.78829 8.5304,-18.3795 6.31526,-1.8676 -1.20351,8.97844 -0.5058,13.67429 2.03393,13.67429 2.12791,0 3.8681,2.30766 3.8681,5.12651 0,6.55539 -4.79914,6.57282 -10.22349,0.0375 z m 61.49399,3.43869 c 0,-0.9083 7.7387,-5.57328 17.19753,-10.36706 13.48644,-6.83446 17.64162,-10.93057 19.25162,-18.97789 1.12829,-5.64575 4.92388,-11.80132 8.43642,-13.68098 5.37331,-2.8752 6.37555,-2.17888 6.32322,4.39395 -0.0654,8.32371 -17.36654,24.73097 -36.51349,34.62845 -11.3908,5.88858 -14.6953,6.78884 -14.6953,4.00353 z m 102.87508,-9.11395 c -5.14794,-14.76907 -4.78703,-15.39965 3.08447,-5.3935 7.24773,9.21458 8.86045,16.15771 3.75263,16.15771 -1.69722,0 -4.77231,-4.84342 -6.8371,-10.76421 z m -29.75009,-21.41839 c -1.01969,-2.66052 -1.20221,-9.19847 -0.40386,-14.52623 1.40469,-9.37557 1.46771,-9.32996 1.96283,1.41948 0.28175,6.10996 2.05137,11.10902 3.93112,11.10902 a 3.4279616,3.4279616 0 0 1 3.41713,3.41857 c 0,5.17347 -6.79152,4.09075 -8.90722,-1.42084 z m 220.74859,-14.0553 c -2.19224,-2.64175 -3.19317,-6.77677 -2.22309,-9.19042 1.10822,-2.75714 1.86219,-2.16546 2.03261,1.5939 0.42131,9.35141 9.5768,7.01423 13.38711,-3.41723 3.11402,-8.52765 3.45748,-8.68596 3.70302,-1.70929 0.15963,4.54155 2.43245,7.69043 5.55181,7.69043 4.19138,0 4.85682,-2.64711 3.22141,-12.81695 -1.65165,-10.27717 -1.30143,-11.61883 1.76559,-6.762 2.10371,3.32867 3.34615,10.95606 2.75977,16.94795 -0.96997,9.90956 -2.20293,10.96546 -13.63931,11.68056 -7.48247,0.46689 -14.18688,-1.1592 -16.55892,-4.01695 z M 563.67634,186.43922 c -6.19314,-16.21675 -7.20748,-24.41837 -2.67133,-21.61428 3.64261,2.25133 12.30309,32.31944 9.97935,34.64455 -0.92842,0.92709 -4.2169,-4.93599 -7.30802,-13.03027 z m -142.34296,-0.69096 c 13.89031,-8.63364 19.25163,-14.19217 20.53016,-21.28558 1.23972,-6.88005 4.04114,-9.92967 9.87741,-10.75748 7.05451,-0.99954 7.85821,-0.0845 6.00528,6.8358 -1.17659,4.39531 -2.28078,11.83619 -2.45523,16.53605 -0.17446,4.69987 -1.09209,6.62247 -2.04069,4.27322 -2.64571,-6.55674 -8.61479,-5.19494 -26.23897,5.98115 -8.89392,5.64037 -18.03873,10.21948 -20.32365,10.1779 -2.28481,-0.043 4.30685,-5.33582 14.64569,-11.76106 z m 30.76171,-23.19745 c 0,-4.00219 -4.97752,-3.00667 -6.40772,1.2813 -0.70578,2.11582 0.44813,3.26964 2.56252,2.56392 2.11581,-0.70437 3.8452,-2.43512 3.8452,-3.84522 z m -350.77902,29.0015 c -2.339869,-1.5295 -3.921679,-14.26863 -4.038419,-32.54753 l -0.19589,-30.03591 14.256569,7.86485 c 18.35537,10.12423 20.29139,18.26949 5.12384,21.56061 -6.21461,1.34837 -12.42921,4.18063 -13.81114,6.2951 -4.526789,6.92838 -2.734319,20.08879 3.36625,24.72024 6.19851,4.70522 2.093,6.57685 -4.70121,2.14264 z m 19.22745,-41.81979 a 3.4279616,3.4279616 0 0 0 -3.41723,-3.41723 3.4279616,3.4279616 0 0 0 -3.41858,3.41723 3.4279616,3.4279616 0 0 0 3.41858,3.41857 3.4279616,3.4279616 0 0 0 3.41723,-3.41857 z m -13.6716,-3.41723 a 3.4279616,3.4279616 0 0 0 -3.41857,-3.41857 3.4279616,3.4279616 0 0 0 -3.41723,3.41857 3.4279616,3.4279616 0 0 0 3.41723,3.41723 3.4279616,3.4279616 0 0 0 3.41857,-3.41723 z m 391.1606,39.69862 c -1.19404,-4.75354 -1.37122,-10.63138 -0.39711,-13.06249 0.97542,-2.42976 1.89436,-0.18917 2.0433,4.98027 0.33147,11.54103 10.33361,13.10541 10.9212,1.7093 0.29788,-5.78662 0.78221,-6.21059 1.9588,-1.7093 2.43113,9.30581 7.86485,7.0384 8.19228,-3.41722 l 0.29385,-9.39973 3.03486,10.17253 c 3.53391,11.84291 1.9588,13.92651 -12.89613,17.05528 -9.76467,2.05678 -11.22311,1.35508 -13.15105,-6.32864 z M 205.82127,166.47788 c -11.07417,-21.93627 -11.73023,-28.01 -1.84617,-17.08883 5.52498,6.1046 17.16264,37.94237 13.86882,37.94237 -0.82244,0 -6.23337,-9.38362 -12.02265,-20.85354 z m 99.2968,12.83976 c 0,-9.07908 9.6601,-19.33075 18.21449,-19.33075 7.42218,0 7.65028,14.66443 0.34215,21.97383 -8.33447,8.33445 -18.55522,6.87739 -18.55522,-2.64308 z m 18.54999,-4.53082 c 2.23651,-5.82552 -4.05193,-12.29504 -8.98649,-9.24409 -1.49868,0.92576 -2.72629,4.66901 -2.72629,8.31835 0,8.11977 8.68991,8.80671 11.71278,0.92574 z m 285.71085,-1.98163 c 0.0284,-4.23028 1.69046,-9.99811 3.69495,-12.8183 2.80403,-3.9472 3.17039,-2.96508 1.59124,4.27321 -1.24648,5.7088 -0.60383,9.39973 1.6341,9.39973 2.02596,0 2.73436,1.53756 1.57249,3.41722 -3.74325,6.05764 -8.54643,3.64129 -8.49278,-4.27186 z m -460.79592,-3.43736 c -1.9601,-2.36133 -4.48785,-8.89794 -5.61755,-14.52624 -1.90515,-9.49095 -1.76297,-9.67611 1.95618,-2.54514 5.97715,11.46052 13.17254,9.63854 13.49986,-3.41724 l 0.27902,-11.109 5.53708,11.96231 5.53708,11.96365 1.96829,-13.67159 1.96818,-13.67159 2.63633,12.87464 c 3.03486,14.83078 1.10158,19.5964 -7.95066,19.5964 -3.53794,0 -7.38325,1.53755 -8.54512,3.41723 -2.85506,4.62069 -6.97666,4.30139 -11.27,-0.87343 z m 515.43263,-4.15917 c 10.33895,-2.38415 21.74306,-5.56389 25.34141,-7.06657 4.52819,-1.89174 5.80541,-1.54291 4.14842,1.13774 -3.07236,4.97222 -24.78991,11.02046 -38.03626,10.59247 -7.57776,-0.24553 -5.34921,-1.46241 8.54643,-4.66364 z"/></svg>